#
# Wavefront object file
# CHAI3D
# http://www.chai3d.org
#


mtllib volume.mat
# object volume
g volume

# mesh-0: vertices
v 0.01150 -0.38900 -0.10350 0.000 0.000 0.000
v -0.48850 0.11100 -0.10350 0.000 0.000 0.000
v 0.01150 0.11100 -0.60350 0.000 0.000 0.000
v 0.51150 0.11100 -0.10350 0.000 0.000 0.000
v 0.01150 -0.38900 -0.10350 0.000 0.000 0.000
v 0.01150 0.11100 -0.60350 0.000 0.000 0.000
v 0.01150 0.61100 -0.10350 0.000 0.000 0.000
v 0.01150 0.11100 -0.60350 0.000 0.000 0.000
v -0.48850 0.11100 -0.10350 0.000 0.000 0.000
v 0.51150 0.11100 -0.10350 0.000 0.000 0.000
v 0.01150 0.11100 -0.60350 0.000 0.000 0.000
v 0.01150 0.61100 -0.10350 0.000 0.000 0.000
v 0.01150 -0.38900 0.89650 0.000 0.000 0.000
v -0.48850 0.11100 0.89650 0.000 0.000 0.000
v -0.48850 0.11100 -0.10350 0.000 0.000 0.000
v 0.01150 -0.38900 0.89650 0.000 0.000 0.000
v -0.48850 0.11100 -0.10350 0.000 0.000 0.000
v 0.01150 -0.38900 -0.10350 0.000 0.000 0.000
v 0.51150 0.11100 0.89650 0.000 0.000 0.000
v 0.01150 -0.38900 0.89650 0.000 0.000 0.000
v 0.01150 -0.38900 -0.10350 0.000 0.000 0.000
v 0.51150 0.11100 0.89650 0.000 0.000 0.000
v 0.01150 -0.38900 -0.10350 0.000 0.000 0.000
v 0.51150 0.11100 -0.10350 0.000 0.000 0.000
v 0.01150 0.61100 -0.10350 0.000 0.000 0.000
v -0.48850 0.11100 -0.10350 0.000 0.000 0.000
v -0.48850 0.11100 0.89650 0.000 0.000 0.000
v 0.01150 0.61100 -0.10350 0.000 0.000 0.000
v -0.48850 0.11100 0.89650 0.000 0.000 0.000
v 0.01150 0.61100 0.89650 0.000 0.000 0.000
v 0.51150 0.11100 -0.10350 0.000 0.000 0.000
v 0.01150 0.61100 -0.10350 0.000 0.000 0.000
v 0.01150 0.61100 0.89650 0.000 0.000 0.000
v 0.51150 0.11100 -0.10350 0.000 0.000 0.000
v 0.01150 0.61100 0.89650 0.000 0.000 0.000
v 0.51150 0.11100 0.89650 0.000 0.000 0.000
v 0.01150 -0.38900 0.89650 0.000 0.000 0.000
v 0.01150 0.11100 1.39650 0.000 0.000 0.000
v -0.48850 0.11100 0.89650 0.000 0.000 0.000
v 0.51150 0.11100 0.89650 0.000 0.000 0.000
v 0.01150 0.11100 1.39650 0.000 0.000 0.000
v 0.01150 -0.38900 0.89650 0.000 0.000 0.000
v 0.01150 0.11100 1.39650 0.000 0.000 0.000
v 0.01150 0.61100 0.89650 0.000 0.000 0.000
v -0.48850 0.11100 0.89650 0.000 0.000 0.000
v 0.01150 0.11100 1.39650 0.000 0.000 0.000
v 0.51150 0.11100 0.89650 0.000 0.000 0.000
v 0.01150 0.61100 0.89650 0.000 0.000 0.000

# mesh-0: normals
vn -0.57735 -0.57735 -0.57735
vn -0.57735 -0.57735 -0.57735
vn -0.57735 -0.57735 -0.57735
vn 0.57735 -0.57735 -0.57735
vn 0.57735 -0.57735 -0.57735
vn 0.57735 -0.57735 -0.57735
vn -0.57735 0.57735 -0.57735
vn -0.57735 0.57735 -0.57735
vn -0.57735 0.57735 -0.57735
vn 0.57735 0.57735 -0.57735
vn 0.57735 0.57735 -0.57735
vn 0.57735 0.57735 -0.57735
vn -0.70711 -0.70711 0.00000
vn -0.70711 -0.70711 0.00000
vn -0.70711 -0.70711 0.00000
vn -0.70711 -0.70711 -0.00000
vn -0.70711 -0.70711 -0.00000
vn -0.70711 -0.70711 -0.00000
vn 0.70711 -0.70711 -0.00000
vn 0.70711 -0.70711 -0.00000
vn 0.70711 -0.70711 -0.00000
vn 0.70711 -0.70711 0.00000
vn 0.70711 -0.70711 0.00000
vn 0.70711 -0.70711 0.00000
vn -0.70711 0.70711 -0.00000
vn -0.70711 0.70711 -0.00000
vn -0.70711 0.70711 -0.00000
vn -0.70711 0.70711 0.00000
vn -0.70711 0.70711 0.00000
vn -0.70711 0.70711 0.00000
vn 0.70711 0.70711 0.00000
vn 0.70711 0.70711 0.00000
vn 0.70711 0.70711 0.00000
vn 0.70711 0.70711 0.00000
vn 0.70711 0.70711 0.00000
vn 0.70711 0.70711 0.00000
vn -0.57735 -0.57735 0.57735
vn -0.57735 -0.57735 0.57735
vn -0.57735 -0.57735 0.57735
vn 0.57735 -0.57735 0.57735
vn 0.57735 -0.57735 0.57735
vn 0.57735 -0.57735 0.57735
vn -0.57735 0.57735 0.57735
vn -0.57735 0.57735 0.57735
vn -0.57735 0.57735 0.57735
vn 0.57735 0.57735 0.57735
vn 0.57735 0.57735 0.57735
vn 0.57735 0.57735 0.57735

# mesh-0: faces
usemtl MATERIAL0
f 1/1/1 2/2/2 3/3/3
f 4/4/4 5/5/5 6/6/6
f 7/7/7 8/8/8 9/9/9
f 10/10/10 11/11/11 12/12/12
f 13/13/13 14/14/14 15/15/15
f 16/16/16 17/17/17 18/18/18
f 19/19/19 20/20/20 21/21/21
f 22/22/22 23/23/23 24/24/24
f 25/25/25 26/26/26 27/27/27
f 28/28/28 29/29/29 30/30/30
f 31/31/31 32/32/32 33/33/33
f 34/34/34 35/35/35 36/36/36
f 37/37/37 38/38/38 39/39/39
f 40/40/40 41/41/41 42/42/42
f 43/43/43 44/44/44 45/45/45
f 46/46/46 47/47/47 48/48/48

