# Blender v2.82 (sub 7) OBJ File: ''
# www.blender.org
mtllib drill_rotated.mtl
o Cautery
v -0.047870 -0.896946 -0.131521
v -0.060000 -0.896946 -0.126449
v -0.069981 -0.749902 -0.121210
v -0.060000 -1.696946 -0.126449
v 0.047870 -0.749902 -0.131521
v 0.024304 -0.896946 -0.137835
v 0.024304 -0.749902 -0.137835
v -0.000000 -0.896946 -0.139962
v -0.000000 -0.749902 -0.139962
v -0.024304 -0.896946 -0.137835
v -0.024304 -0.749902 -0.137835
v -0.047870 -0.749902 -0.131521
v 0.047870 -1.696946 -0.131521
v 0.060000 -1.696946 -0.126449
v 0.069981 -2.280000 -0.121210
v 0.069981 -0.749902 -0.121210
v 0.060000 -0.896946 -0.126449
v 0.047870 -0.896946 -0.131521
v 0.047870 -2.280000 -0.131521
v 0.024304 -2.280000 -0.137835
v 0.024304 -1.696946 -0.137835
v -0.000000 -2.280000 -0.139962
v -0.000000 -1.696946 -0.139962
v -0.024304 -2.280000 -0.137835
v -0.024304 -1.696946 -0.137835
v -0.047870 -2.280000 -0.131521
v -0.047870 -1.696946 -0.131521
v -0.069981 -2.280000 -0.121210
v -0.089965 -2.280000 -0.107217
v -0.089966 -0.749902 -0.107217
v -0.107217 -2.280000 -0.089966
v -0.107217 -0.749902 -0.089966
v -0.121210 -2.280000 -0.069981
v -0.121210 -0.749902 -0.069981
v -0.131521 -2.280000 -0.047870
v -0.131521 -0.749902 -0.047870
v -0.137835 -2.280000 -0.024304
v -0.137835 -0.749902 -0.024304
v -0.139961 -2.280000 -0.000000
v -0.139961 -0.749902 -0.000000
v -0.137835 -2.280000 0.024304
v -0.137835 -0.749902 0.024304
v -0.131521 -2.280000 0.047870
v -0.131521 -0.749902 0.047870
v -0.121210 -2.280000 0.069981
v -0.121210 -0.749902 0.069981
v -0.107217 -2.280000 0.089965
v -0.107217 -0.749902 0.089966
v -0.089965 -2.280000 0.107217
v -0.089966 -0.749902 0.107217
v -0.069981 -2.280000 0.121210
v -0.069981 -0.749902 0.121210
v -0.047870 -2.280000 0.131521
v -0.047870 -0.749902 0.131521
v -0.024304 -2.280000 0.137835
v -0.024304 -0.749902 0.137835
v -0.000000 -2.280000 0.139961
v -0.000000 -0.749902 0.139961
v 0.024304 -2.280000 0.137835
v 0.024304 -0.749902 0.137835
v 0.047870 -2.280000 0.131521
v 0.047870 -0.749902 0.131521
v 0.069981 -2.280000 0.121210
v 0.069981 -0.749902 0.121210
v 0.089966 -2.280000 0.107217
v 0.089966 -0.749902 0.107217
v 0.107217 -2.280000 0.089965
v 0.107217 -0.749902 0.089966
v 0.121210 -2.280000 0.069981
v 0.121210 -0.749902 0.069981
v 0.131521 -2.280000 0.047870
v 0.131521 -0.749902 0.047870
v 0.137835 -2.280000 0.024304
v 0.137835 -0.749902 0.024304
v 0.139962 -2.280000 0.000000
v 0.139962 -0.749902 0.000000
v 0.137835 -2.280000 -0.024304
v 0.137835 -0.749902 -0.024304
v 0.131521 -2.280000 -0.047870
v 0.131521 -0.749902 -0.047870
v 0.121210 -2.280000 -0.069981
v 0.121210 -0.749902 -0.069981
v 0.107217 -2.280000 -0.089966
v 0.107217 -0.749902 -0.089966
v 0.089966 -2.280000 -0.107217
v 0.089966 -0.749902 -0.107217
v 0.010000 -0.040000 -0.040000
v -0.010000 -0.040000 -0.040000
v -0.010000 -0.033054 -0.039392
v 0.010000 -0.033054 -0.039392
v -0.010000 -0.026319 -0.037588
v 0.010000 -0.026319 -0.037588
v -0.010000 -0.020000 -0.034641
v 0.010000 -0.020000 -0.034641
v -0.010000 -0.014288 -0.030642
v 0.010000 -0.014288 -0.030642
v -0.010000 -0.009358 -0.025712
v 0.010000 -0.009358 -0.025712
v -0.010000 -0.005359 -0.020000
v 0.010000 -0.005359 -0.020000
v -0.010000 -0.002412 -0.013681
v 0.010000 -0.002412 -0.013681
v -0.010000 -0.000608 -0.006946
v 0.010000 -0.000608 -0.006946
v -0.010000 0.000000 -0.000000
v 0.010000 -0.000000 0.000000
v -0.010000 -0.000608 0.006946
v 0.010000 -0.000608 0.006946
v -0.010000 -0.002412 0.013681
v 0.010000 -0.002412 0.013681
v -0.010000 -0.005359 0.020000
v 0.010000 -0.005359 0.020000
v -0.010000 -0.009358 0.025711
v 0.010000 -0.009358 0.025711
v -0.010000 -0.014288 0.030642
v 0.010000 -0.014288 0.030642
v -0.010000 -0.020000 0.034641
v 0.010000 -0.020000 0.034641
v -0.010000 -0.026319 0.037588
v 0.010000 -0.026319 0.037588
v -0.010000 -0.033054 0.039392
v 0.010000 -0.033054 0.039392
v -0.010000 -0.040000 0.040000
v 0.010000 -0.040000 0.040000
v 0.010000 -0.400000 0.040000
v -0.010000 -0.400000 0.040000
v 0.010000 -0.400000 -0.040000
v -0.010000 -0.400000 -0.040000
v 0.013892 -0.400000 0.078785
v 0.027362 -0.400000 0.075175
v 0.040000 -0.400000 0.069282
v 0.051423 -0.400000 0.061284
v 0.061284 -0.400000 0.051423
v 0.069282 -0.400000 0.040000
v 0.075175 -0.400000 0.027362
v 0.078785 -0.400000 0.013892
v 0.051423 -0.400000 -0.061284
v 0.040000 -0.400000 -0.069282
v 0.027362 -0.400000 -0.075175
v 0.080000 -0.400000 0.000000
v 0.078785 -0.400000 -0.013892
v 0.075175 -0.400000 -0.027362
v -0.061284 -0.400000 -0.051423
v -0.069282 -0.400000 -0.040000
v -0.069282 -0.400000 0.040000
v -0.061284 -0.400000 0.051423
v -0.051423 -0.400000 0.061284
v -0.040000 -0.400000 0.069282
v -0.013892 -0.400000 -0.078785
v -0.000000 -0.400000 -0.080000
v 0.013892 -0.400000 -0.078785
v 0.069282 -0.400000 -0.040000
v 0.061284 -0.400000 -0.051423
v -0.027362 -0.400000 0.075175
v -0.013892 -0.400000 0.078785
v -0.000000 -0.400000 0.080000
v -0.027362 -0.400000 -0.075175
v -0.040000 -0.400000 -0.069282
v -0.051423 -0.400000 -0.061284
v -0.075175 -0.400000 -0.027362
v -0.078785 -0.400000 -0.013892
v -0.080000 -0.400000 -0.000000
v -0.078785 -0.400000 0.013892
v -0.075175 -0.400000 0.027362
v -0.160000 -0.680000 -0.000000
v -0.157569 -0.680000 -0.027784
v -0.150351 -0.680000 -0.054723
v -0.138564 -0.680000 -0.080000
v -0.122567 -0.680000 -0.102846
v -0.102846 -0.680000 -0.122567
v -0.080000 -0.680000 -0.138564
v -0.054723 -0.680000 -0.150351
v -0.027784 -0.680000 -0.157569
v -0.000000 -0.680000 -0.160000
v 0.027784 -0.680000 -0.157569
v 0.054723 -0.680000 -0.150351
v 0.080000 -0.680000 -0.138564
v 0.102846 -0.680000 -0.122567
v 0.122567 -0.680000 -0.102846
v 0.138564 -0.680000 -0.080000
v 0.150351 -0.680000 -0.054723
v 0.157569 -0.680000 -0.027784
v 0.160000 -0.680000 0.000000
v 0.157569 -0.680000 0.027784
v 0.150351 -0.680000 0.054723
v 0.138564 -0.680000 0.080000
v 0.122567 -0.680000 0.102846
v 0.102846 -0.680000 0.122567
v 0.080000 -0.680000 0.138564
v 0.054723 -0.680000 0.150351
v 0.027784 -0.680000 0.157569
v -0.000000 -0.680000 0.160000
v -0.027784 -0.680000 0.157569
v -0.054723 -0.680000 0.150351
v -0.080000 -0.680000 0.138564
v -0.102846 -0.680000 0.122567
v -0.122567 -0.680000 0.102846
v -0.138564 -0.680000 0.080000
v -0.150351 -0.680000 0.054723
v -0.157569 -0.680000 0.027784
v -0.000000 -2.280000 0.000000
v -0.060000 -0.896946 -0.180000
v -0.060000 -1.696946 -0.180000
v 0.060000 -1.696946 -0.180000
v 0.060000 -0.896946 -0.180000
vn -0.3858 0.0067 -0.9226
vn -0.4648 0.0000 -0.8854
vn 0.2588 -0.0000 -0.9659
vn 0.0872 -0.0000 -0.9962
vn -0.0872 0.0000 -0.9962
vn -0.2588 0.0000 -0.9659
vn -0.4226 0.0000 -0.9063
vn 0.3858 -0.0017 -0.9226
vn 0.4226 0.0036 -0.9063
vn 0.3858 -0.0000 -0.9226
vn 0.4226 -0.0000 -0.9063
vn -0.3858 0.0000 -0.9226
vn -0.4226 -0.0009 -0.9063
vn -0.5736 -0.0000 -0.8192
vn -0.7071 0.0000 -0.7071
vn -0.8192 0.0000 -0.5736
vn -0.9063 0.0000 -0.4226
vn -0.9659 0.0000 -0.2588
vn -0.9962 0.0000 -0.0871
vn -0.9962 0.0000 0.0871
vn -0.9659 0.0000 0.2588
vn -0.9063 0.0000 0.4226
vn -0.8192 -0.0000 0.5736
vn -0.7071 -0.0000 0.7071
vn -0.5736 0.0000 0.8192
vn -0.4226 0.0000 0.9063
vn -0.2588 0.0000 0.9659
vn -0.0871 0.0000 0.9962
vn 0.0871 -0.0000 0.9962
vn 0.2588 -0.0000 0.9659
vn 0.4226 -0.0000 0.9063
vn 0.5736 -0.0000 0.8192
vn 0.7071 -0.0000 0.7071
vn 0.8192 -0.0000 0.5736
vn 0.9063 -0.0000 0.4226
vn 0.9659 -0.0000 0.2588
vn 0.9962 -0.0000 0.0872
vn 0.9962 -0.0000 -0.0872
vn 0.9659 -0.0000 -0.2588
vn 0.9063 -0.0000 -0.4226
vn 0.8192 -0.0000 -0.5736
vn 0.7071 -0.0000 -0.7071
vn 0.5736 -0.0000 -0.8192
vn 0.4648 -0.0000 -0.8854
vn 0.0000 0.0872 -0.9962
vn 0.0000 0.2587 -0.9659
vn 0.0000 0.4227 -0.9063
vn 0.0000 0.5735 -0.8192
vn 0.0000 0.7071 -0.7071
vn 0.0000 0.8192 -0.5735
vn 0.0000 0.9063 -0.4227
vn 0.0000 0.9659 -0.2587
vn 0.0000 0.9962 -0.0872
vn 0.0000 0.9962 0.0872
vn 0.0000 0.9659 0.2587
vn 0.0000 0.9063 0.4227
vn 0.0000 0.8191 0.5736
vn 0.0000 0.7072 0.7070
vn 0.0000 0.5735 0.8192
vn 0.0000 0.4227 0.9063
vn 0.0000 0.2587 0.9659
vn 0.0000 0.0872 0.9962
vn 0.0000 0.0000 1.0000
vn 0.0000 0.0000 -1.0000
vn 1.0000 -0.0000 0.0000
vn -1.0000 0.0000 -0.0000
vn 0.0000 1.0000 -0.0000
vn -0.9581 0.2738 -0.0838
vn -0.9290 0.2738 -0.2489
vn -0.9290 0.2738 -0.2490
vn -0.8717 0.2738 -0.4065
vn -0.7879 0.2738 -0.5517
vn -0.7879 0.2738 -0.5516
vn -0.6801 0.2738 -0.6801
vn -0.5517 0.2738 -0.7879
vn -0.5516 0.2738 -0.7879
vn -0.4065 0.2738 -0.8717
vn -0.2489 0.2738 -0.9290
vn -0.2490 0.2738 -0.9290
vn -0.0838 0.2738 -0.9581
vn 0.0838 0.2738 -0.9581
vn 0.2489 0.2738 -0.9290
vn 0.2490 0.2738 -0.9290
vn 0.4065 0.2738 -0.8717
vn 0.5517 0.2738 -0.7879
vn 0.5516 0.2738 -0.7879
vn 0.6801 0.2738 -0.6801
vn 0.7879 0.2738 -0.5517
vn 0.7879 0.2738 -0.5516
vn 0.8717 0.2738 -0.4065
vn 0.9290 0.2738 -0.2489
vn 0.9290 0.2738 -0.2490
vn 0.9581 0.2738 -0.0838
vn 0.9581 0.2738 0.0838
vn 0.9290 0.2738 0.2489
vn 0.9290 0.2738 0.2490
vn 0.8717 0.2738 0.4065
vn 0.7879 0.2738 0.5517
vn 0.7879 0.2738 0.5516
vn 0.6801 0.2738 0.6801
vn 0.5517 0.2738 0.7879
vn 0.5516 0.2738 0.7879
vn 0.4065 0.2738 0.8717
vn 0.2489 0.2738 0.9290
vn 0.2490 0.2738 0.9290
vn 0.0838 0.2738 0.9581
vn -0.0838 0.2738 0.9581
vn -0.2489 0.2738 0.9290
vn -0.2490 0.2738 0.9290
vn -0.4065 0.2738 0.8717
vn -0.5517 0.2738 0.7879
vn -0.5516 0.2738 0.7879
vn -0.6801 0.2738 0.6801
vn -0.7879 0.2738 0.5517
vn -0.7879 0.2738 0.5516
vn -0.8717 0.2738 0.4065
vn -0.9290 0.2738 0.2489
vn -0.9290 0.2738 0.2490
vn -0.9581 0.2738 0.0838
vn 0.9579 -0.2746 -0.0838
vn 0.9288 -0.2746 -0.2489
vn 0.8715 -0.2746 -0.4064
vn 0.7877 -0.2746 -0.5515
vn 0.6799 -0.2746 -0.6799
vn 0.5515 -0.2746 -0.7877
vn 0.4064 -0.2746 -0.8715
vn 0.2489 -0.2746 -0.9288
vn 0.0838 -0.2746 -0.9579
vn -0.0838 -0.2746 -0.9579
vn -0.2489 -0.2746 -0.9288
vn -0.4064 -0.2746 -0.8715
vn -0.5515 -0.2746 -0.7877
vn -0.6799 -0.2746 -0.6799
vn -0.7877 -0.2746 -0.5515
vn -0.8715 -0.2746 -0.4064
vn -0.9288 -0.2746 -0.2489
vn -0.9579 -0.2746 -0.0838
vn -0.9579 -0.2746 0.0838
vn -0.9288 -0.2746 0.2489
vn -0.8715 -0.2746 0.4064
vn -0.7877 -0.2746 0.5515
vn -0.6799 -0.2746 0.6799
vn -0.5515 -0.2746 0.7877
vn -0.4064 -0.2746 0.8715
vn -0.2489 -0.2746 0.9288
vn -0.0838 -0.2746 0.9579
vn 0.0838 -0.2746 0.9579
vn 0.2489 -0.2746 0.9288
vn 0.4064 -0.2746 0.8715
vn 0.5515 -0.2746 0.7877
vn 0.6799 -0.2746 0.6799
vn 0.7877 -0.2746 0.5515
vn 0.8715 -0.2746 0.4064
vn 0.9288 -0.2746 0.2489
vn 0.9579 -0.2746 0.0838
vn 0.0000 -1.0000 -0.0000
usemtl None
s 1
f 1//1 2//1 3//1
f 3//2 2//2 4//2
f 5//3 6//3 7//3
f 7//4 6//4 8//4
f 7//4 8//4 9//4
f 9//5 8//5 10//5
f 9//5 10//5 11//5
f 11//6 10//6 1//6
f 11//6 1//6 12//6
f 12//7 1//7 3//7
f 13//8 14//8 15//8
f 16//9 17//9 5//9
f 5//10 17//10 18//10
f 5//3 18//3 6//3
f 15//11 19//11 13//11
f 13//3 19//3 20//3
f 13//3 20//3 21//3
f 21//4 20//4 22//4
f 21//4 22//4 23//4
f 23//5 22//5 24//5
f 23//5 24//5 25//5
f 25//6 24//6 26//6
f 25//6 26//6 27//6
f 27//12 26//12 4//12
f 4//13 26//13 28//13
f 4//2 28//2 3//2
f 3//14 28//14 29//14
f 3//14 29//14 30//14
f 30//15 29//15 31//15
f 30//15 31//15 32//15
f 32//16 31//16 33//16
f 32//16 33//16 34//16
f 34//17 33//17 35//17
f 34//17 35//17 36//17
f 36//18 35//18 37//18
f 36//18 37//18 38//18
f 38//19 37//19 39//19
f 38//19 39//19 40//19
f 40//20 39//20 41//20
f 40//20 41//20 42//20
f 42//21 41//21 43//21
f 42//21 43//21 44//21
f 44//22 43//22 45//22
f 44//22 45//22 46//22
f 46//23 45//23 47//23
f 46//23 47//23 48//23
f 48//24 47//24 49//24
f 48//24 49//24 50//24
f 50//25 49//25 51//25
f 50//25 51//25 52//25
f 52//26 51//26 53//26
f 52//26 53//26 54//26
f 54//27 53//27 55//27
f 54//27 55//27 56//27
f 56//28 55//28 57//28
f 56//28 57//28 58//28
f 58//29 57//29 59//29
f 58//29 59//29 60//29
f 60//30 59//30 61//30
f 60//30 61//30 62//30
f 62//31 61//31 63//31
f 62//31 63//31 64//31
f 64//32 63//32 65//32
f 64//32 65//32 66//32
f 66//33 65//33 67//33
f 66//33 67//33 68//33
f 68//34 67//34 69//34
f 68//34 69//34 70//34
f 70//35 69//35 71//35
f 70//35 71//35 72//35
f 72//36 71//36 73//36
f 72//36 73//36 74//36
f 74//37 73//37 75//37
f 74//37 75//37 76//37
f 76//38 75//38 77//38
f 76//38 77//38 78//38
f 78//39 77//39 79//39
f 78//39 79//39 80//39
f 80//40 79//40 81//40
f 80//40 81//40 82//40
f 82//41 81//41 83//41
f 82//41 83//41 84//41
f 84//42 83//42 85//42
f 84//42 85//42 86//42
f 86//43 85//43 15//43
f 86//43 15//43 16//43
f 16//44 15//44 14//44
f 16//44 14//44 17//44
f 87//45 88//45 89//45
f 87//45 89//45 90//45
f 90//46 89//46 91//46
f 90//46 91//46 92//46
f 92//47 91//47 93//47
f 92//47 93//47 94//47
f 94//48 93//48 95//48
f 94//48 95//48 96//48
f 96//49 95//49 97//49
f 96//49 97//49 98//49
f 98//50 97//50 99//50
f 98//50 99//50 100//50
f 100//51 99//51 101//51
f 100//51 101//51 102//51
f 102//52 101//52 103//52
f 102//52 103//52 104//52
f 104//53 103//53 105//53
f 104//53 105//53 106//53
f 106//54 105//54 107//54
f 106//54 107//54 108//54
f 108//55 107//55 109//55
f 108//55 109//55 110//55
f 110//56 109//56 111//56
f 110//56 111//56 112//56
f 112//57 111//57 113//57
f 112//57 113//57 114//57
f 114//58 113//58 115//58
f 114//58 115//58 116//58
f 116//59 115//59 117//59
f 116//59 117//59 118//59
f 118//60 117//60 119//60
f 118//60 119//60 120//60
f 120//61 119//61 121//61
f 120//61 121//61 122//61
f 122//62 121//62 123//62
f 122//62 123//62 124//62
f 125//63 124//63 126//63
f 126//63 124//63 123//63
f 87//64 127//64 88//64
f 88//64 127//64 128//64
f 125//65 127//65 124//65
f 124//65 127//65 87//65
f 124//65 87//65 90//65
f 90//65 92//65 124//65
f 124//65 92//65 94//65
f 124//65 94//65 96//65
f 96//65 98//65 124//65
f 124//65 98//65 100//65
f 124//65 100//65 122//65
f 122//65 100//65 120//65
f 120//65 100//65 102//65
f 120//65 102//65 104//65
f 104//65 106//65 120//65
f 120//65 106//65 108//65
f 120//65 108//65 110//65
f 110//65 112//65 120//65
f 120//65 112//65 114//65
f 120//65 114//65 118//65
f 118//65 114//65 116//65
f 88//66 128//66 126//66
f 126//66 123//66 88//66
f 88//66 123//66 121//66
f 88//66 121//66 119//66
f 95//66 93//66 119//66
f 113//66 99//66 115//66
f 115//66 99//66 117//66
f 117//66 99//66 119//66
f 119//66 99//66 97//66
f 119//66 97//66 95//66
f 93//66 91//66 119//66
f 119//66 91//66 89//66
f 119//66 89//66 88//66
f 113//66 111//66 99//66
f 99//66 111//66 109//66
f 99//66 109//66 107//66
f 107//66 105//66 99//66
f 99//66 105//66 103//66
f 99//66 103//66 101//66
f 125//67 129//67 130//67
f 130//67 131//67 125//67
f 125//67 131//67 132//67
f 125//67 132//67 133//67
f 133//67 134//67 125//67
f 125//67 134//67 135//67
f 125//67 135//67 136//67
f 125//67 137//67 127//67
f 127//67 137//67 138//67
f 127//67 138//67 139//67
f 136//67 140//67 125//67
f 125//67 140//67 141//67
f 125//67 141//67 142//67
f 126//67 143//67 144//67
f 145//67 146//67 126//67
f 126//67 146//67 147//67
f 126//67 147//67 148//67
f 149//67 128//67 150//67
f 150//67 128//67 127//67
f 150//67 127//67 151//67
f 151//67 127//67 139//67
f 142//67 152//67 125//67
f 125//67 152//67 153//67
f 125//67 153//67 137//67
f 148//67 154//67 126//67
f 126//67 154//67 155//67
f 126//67 155//67 125//67
f 125//67 155//67 156//67
f 125//67 156//67 129//67
f 149//67 157//67 128//67
f 128//67 157//67 158//67
f 128//67 158//67 126//67
f 126//67 158//67 159//67
f 126//67 159//67 143//67
f 144//67 160//67 126//67
f 126//67 160//67 161//67
f 126//67 161//67 162//67
f 162//67 163//67 126//67
f 126//67 163//67 164//67
f 126//67 164//67 145//67
f 165//68 161//68 166//68
f 166//69 161//70 160//70
f 166//69 160//70 167//69
f 167//71 160//71 144//71
f 167//71 144//71 168//71
f 168//72 144//73 143//73
f 168//72 143//73 169//72
f 169//74 143//74 159//74
f 169//74 159//74 170//74
f 170//75 159//76 158//76
f 170//75 158//76 171//75
f 171//77 158//77 157//77
f 171//77 157//77 172//77
f 172//78 157//79 149//79
f 172//78 149//79 173//78
f 173//80 149//80 150//80
f 173//80 150//80 174//80
f 174//81 150//81 151//81
f 174//81 151//81 175//81
f 175//82 151//83 139//83
f 175//82 139//83 176//82
f 176//84 139//84 138//84
f 176//84 138//84 177//84
f 177//85 138//86 137//86
f 177//85 137//86 178//85
f 178//87 137//87 153//87
f 178//87 153//87 179//87
f 179//88 153//89 152//89
f 179//88 152//89 180//88
f 180//90 152//90 142//90
f 180//90 142//90 181//90
f 181//91 142//92 141//92
f 181//91 141//92 182//91
f 182//93 141//93 140//93
f 182//93 140//93 183//93
f 183//94 140//94 136//94
f 183//94 136//94 184//94
f 184//95 136//96 135//96
f 184//95 135//96 185//95
f 185//97 135//97 134//97
f 185//97 134//97 186//97
f 186//98 134//99 133//99
f 186//98 133//99 187//98
f 187//100 133//100 132//100
f 187//100 132//100 188//100
f 188//101 132//102 131//102
f 188//101 131//102 189//101
f 189//103 131//103 130//103
f 189//103 130//103 190//103
f 190//104 130//105 129//105
f 190//104 129//105 191//104
f 191//106 129//106 156//106
f 191//106 156//106 192//106
f 192//107 156//107 155//107
f 192//107 155//107 193//107
f 193//108 155//109 154//109
f 193//108 154//109 194//108
f 194//110 154//110 148//110
f 194//110 148//110 195//110
f 195//111 148//112 147//112
f 195//111 147//112 196//111
f 196//113 147//113 146//113
f 196//113 146//113 197//113
f 197//114 146//115 145//115
f 197//114 145//115 198//114
f 198//116 145//116 164//116
f 198//116 164//116 199//116
f 199//117 164//118 163//118
f 199//117 163//118 200//117
f 200//119 163//119 162//119
f 200//119 162//119 165//119
f 165//68 162//68 161//68
f 183//120 78//120 182//120
f 182//121 78//121 80//121
f 182//121 80//121 181//121
f 181//122 80//122 82//122
f 181//122 82//122 180//122
f 180//123 82//123 84//123
f 180//123 84//123 179//123
f 179//124 84//124 86//124
f 179//124 86//124 178//124
f 178//125 86//125 16//125
f 178//125 16//125 177//125
f 177//126 16//126 5//126
f 177//126 5//126 176//126
f 176//127 5//127 7//127
f 176//127 7//127 175//127
f 175//128 7//128 9//128
f 175//128 9//128 174//128
f 174//129 9//129 11//129
f 174//129 11//129 173//129
f 173//130 11//130 12//130
f 173//130 12//130 172//130
f 172//131 12//131 3//131
f 172//131 3//131 171//131
f 171//132 3//132 30//132
f 171//132 30//132 170//132
f 170//133 30//133 32//133
f 170//133 32//133 169//133
f 169//134 32//134 34//134
f 169//134 34//134 168//134
f 168//135 34//135 36//135
f 168//135 36//135 167//135
f 167//136 36//136 38//136
f 167//136 38//136 166//136
f 166//137 38//137 40//137
f 166//137 40//137 165//137
f 165//138 40//138 42//138
f 165//138 42//138 200//138
f 200//139 42//139 44//139
f 200//139 44//139 199//139
f 199//140 44//140 46//140
f 199//140 46//140 198//140
f 198//141 46//141 48//141
f 198//141 48//141 197//141
f 197//142 48//142 50//142
f 197//142 50//142 196//142
f 196//143 50//143 52//143
f 196//143 52//143 195//143
f 195//144 52//144 54//144
f 195//144 54//144 194//144
f 194//145 54//145 56//145
f 194//145 56//145 193//145
f 193//146 56//146 58//146
f 193//146 58//146 192//146
f 192//147 58//147 60//147
f 192//147 60//147 191//147
f 191//148 60//148 62//148
f 191//148 62//148 190//148
f 190//149 62//149 64//149
f 190//149 64//149 189//149
f 189//150 64//150 66//150
f 189//150 66//150 188//150
f 188//151 66//151 68//151
f 188//151 68//151 187//151
f 187//152 68//152 70//152
f 187//152 70//152 186//152
f 186//153 70//153 72//153
f 186//153 72//153 185//153
f 185//154 72//154 74//154
f 185//154 74//154 184//154
f 184//155 74//155 76//155
f 184//155 76//155 183//155
f 183//120 76//120 78//120
f 79//156 77//156 201//156
f 201//156 77//156 75//156
f 201//156 75//156 73//156
f 85//156 83//156 201//156
f 201//156 83//156 81//156
f 201//156 81//156 79//156
f 20//156 19//156 201//156
f 201//156 19//156 15//156
f 201//156 15//156 85//156
f 26//156 24//156 201//156
f 201//156 24//156 22//156
f 201//156 22//156 20//156
f 31//156 29//156 201//156
f 201//156 29//156 28//156
f 201//156 28//156 26//156
f 37//156 35//156 201//156
f 201//156 35//156 33//156
f 201//156 33//156 31//156
f 43//156 41//156 201//156
f 201//156 41//156 39//156
f 201//156 39//156 37//156
f 49//156 47//156 201//156
f 201//156 47//156 45//156
f 201//156 45//156 43//156
f 55//156 53//156 201//156
f 201//156 53//156 51//156
f 201//156 51//156 49//156
f 61//156 59//156 201//156
f 201//156 59//156 57//156
f 201//156 57//156 55//156
f 67//156 65//156 201//156
f 201//156 65//156 63//156
f 201//156 63//156 61//156
f 73//156 71//156 201//156
f 201//156 71//156 69//156
f 201//156 69//156 67//156
f 2//66 202//66 4//66
f 4//66 202//66 203//66
f 14//65 204//65 17//65
f 17//65 204//65 205//65
f 18//67 17//67 205//67
f 202//67 2//67 1//67
f 1//67 10//67 202//67
f 202//67 10//67 8//67
f 202//67 8//67 205//67
f 205//67 8//67 6//67
f 205//67 6//67 18//67
f 27//156 4//156 203//156
f 204//156 14//156 13//156
f 13//156 21//156 204//156
f 204//156 21//156 23//156
f 204//156 23//156 203//156
f 203//156 23//156 25//156
f 203//156 25//156 27//156
f 205//64 204//64 202//64
f 202//64 204//64 203//64
