# Blender v2.82 (sub 7) OBJ File: ''
# www.blender.org
mtllib 1mm.mtl
o SphereModel.001
v -0.008451 0.028785 0.000000
v -0.008163 0.028785 0.002187
v 0.000000 0.030000 0.000000
v -0.007320 0.028785 0.004227
v -0.005976 0.028785 0.005976
v -0.004227 0.028785 0.007320
v -0.002187 0.028785 0.008163
v 0.000000 0.028785 0.008451
v 0.002187 0.028785 0.008163
v 0.004227 0.028785 0.007320
v 0.005976 0.028785 0.005976
v 0.007320 0.028785 0.004227
v 0.008163 0.028785 0.002187
v 0.008451 0.028785 0.000000
v 0.008163 0.028785 -0.002187
v 0.007320 0.028785 -0.004227
v 0.005976 0.028785 -0.005976
v 0.004227 0.028785 -0.007320
v 0.002187 0.028785 -0.008163
v 0.000000 0.028785 -0.008451
v -0.002187 0.028785 -0.008163
v -0.004227 0.028785 -0.007320
v -0.005976 0.028785 -0.005976
v -0.007320 0.028785 -0.004227
v -0.008163 0.028785 -0.002187
v -0.008451 -0.028785 -0.000000
v 0.000000 -0.030000 -0.000000
v -0.008163 -0.028785 0.002187
v -0.007320 -0.028785 0.004227
v -0.005976 -0.028785 0.005976
v -0.004227 -0.028785 0.007320
v -0.002187 -0.028785 0.008163
v 0.000000 -0.028785 0.008451
v 0.002187 -0.028785 0.008163
v 0.004227 -0.028785 0.007320
v 0.005976 -0.028785 0.005976
v 0.007320 -0.028785 0.004227
v 0.008163 -0.028785 0.002187
v 0.008451 -0.028785 -0.000000
v 0.008163 -0.028785 -0.002187
v 0.007320 -0.028785 -0.004227
v 0.005976 -0.028785 -0.005976
v 0.004227 -0.028785 -0.007320
v 0.002187 -0.028785 -0.008163
v 0.000000 -0.028785 -0.008451
v -0.002187 -0.028785 -0.008163
v -0.004227 -0.028785 -0.007320
v -0.005976 -0.028785 -0.005976
v -0.007320 -0.028785 -0.004227
v -0.008163 -0.028785 -0.002187
v -0.016218 0.025239 0.000000
v -0.015666 0.025239 0.004197
v -0.022671 0.019647 0.000000
v -0.021900 0.019647 0.005868
v -0.027288 0.012462 0.000000
v -0.026358 0.012462 0.007062
v -0.029694 0.004269 0.000000
v -0.028683 0.004269 0.007686
v -0.029694 -0.004269 -0.000000
v -0.028683 -0.004269 0.007686
v -0.027288 -0.012462 -0.000000
v -0.026358 -0.012462 0.007062
v -0.022671 -0.019647 -0.000000
v -0.021900 -0.019647 0.005868
v -0.016218 -0.025239 -0.000000
v -0.015666 -0.025239 0.004197
v -0.014046 0.025239 0.008109
v -0.019635 0.019647 0.011337
v -0.023634 0.012462 0.013644
v -0.025716 0.004269 0.014847
v -0.025716 -0.004269 0.014847
v -0.023634 -0.012462 0.013644
v -0.019635 -0.019647 0.011337
v -0.014046 -0.025239 0.008109
v -0.011469 0.025239 0.011469
v -0.016032 0.019647 0.016032
v -0.019296 0.012462 0.019296
v -0.020997 0.004269 0.020997
v -0.020997 -0.004269 0.020997
v -0.019296 -0.012462 0.019296
v -0.016032 -0.019647 0.016032
v -0.011469 -0.025239 0.011469
v -0.008109 0.025239 0.014046
v -0.011337 0.019647 0.019635
v -0.013644 0.012462 0.023634
v -0.014847 0.004269 0.025716
v -0.014847 -0.004269 0.025716
v -0.013644 -0.012462 0.023634
v -0.011337 -0.019647 0.019635
v -0.008109 -0.025239 0.014046
v -0.004197 0.025239 0.015666
v -0.005868 0.019647 0.021900
v -0.007062 0.012462 0.026358
v -0.007686 0.004269 0.028683
v -0.007686 -0.004269 0.028683
v -0.007062 -0.012462 0.026358
v -0.005868 -0.019647 0.021900
v -0.004197 -0.025239 0.015666
v 0.000000 0.025239 0.016218
v 0.000000 0.019647 0.022671
v 0.000000 0.012462 0.027288
v 0.000000 0.004269 0.029694
v 0.000000 -0.004269 0.029694
v 0.000000 -0.012462 0.027288
v 0.000000 -0.019647 0.022671
v 0.000000 -0.025239 0.016218
v 0.004197 0.025239 0.015666
v 0.005868 0.019647 0.021900
v 0.007062 0.012462 0.026358
v 0.007686 0.004269 0.028683
v 0.007686 -0.004269 0.028683
v 0.007062 -0.012462 0.026358
v 0.005868 -0.019647 0.021900
v 0.004197 -0.025239 0.015666
v 0.008109 0.025239 0.014046
v 0.011337 0.019647 0.019635
v 0.013644 0.012462 0.023634
v 0.014847 0.004269 0.025716
v 0.014847 -0.004269 0.025716
v 0.013644 -0.012462 0.023634
v 0.011337 -0.019647 0.019635
v 0.008109 -0.025239 0.014046
v 0.011469 0.025239 0.011469
v 0.016032 0.019647 0.016032
v 0.019296 0.012462 0.019296
v 0.020997 0.004269 0.020997
v 0.020997 -0.004269 0.020997
v 0.019296 -0.012462 0.019296
v 0.016032 -0.019647 0.016032
v 0.011469 -0.025239 0.011469
v 0.014046 0.025239 0.008109
v 0.019635 0.019647 0.011337
v 0.023634 0.012462 0.013644
v 0.025716 0.004269 0.014847
v 0.025716 -0.004269 0.014847
v 0.023634 -0.012462 0.013644
v 0.019635 -0.019647 0.011337
v 0.014046 -0.025239 0.008109
v 0.015666 0.025239 0.004197
v 0.021900 0.019647 0.005868
v 0.026358 0.012462 0.007062
v 0.028683 0.004269 0.007686
v 0.028683 -0.004269 0.007686
v 0.026358 -0.012462 0.007062
v 0.021900 -0.019647 0.005868
v 0.015666 -0.025239 0.004197
v 0.016218 0.025239 0.000000
v 0.022671 0.019647 0.000000
v 0.027288 0.012462 0.000000
v 0.029694 0.004269 0.000000
v 0.029694 -0.004269 -0.000000
v 0.027288 -0.012462 -0.000000
v 0.022671 -0.019647 -0.000000
v 0.016218 -0.025239 -0.000000
v 0.015666 0.025239 -0.004197
v 0.021900 0.019647 -0.005868
v 0.026358 0.012462 -0.007062
v 0.028683 0.004269 -0.007686
v 0.028683 -0.004269 -0.007686
v 0.026358 -0.012462 -0.007062
v 0.021900 -0.019647 -0.005868
v 0.015666 -0.025239 -0.004197
v 0.014046 0.025239 -0.008109
v 0.019635 0.019647 -0.011337
v 0.023634 0.012462 -0.013644
v 0.025716 0.004269 -0.014847
v 0.025716 -0.004269 -0.014847
v 0.023634 -0.012462 -0.013644
v 0.019635 -0.019647 -0.011337
v 0.014046 -0.025239 -0.008109
v 0.011469 0.025239 -0.011469
v 0.016032 0.019647 -0.016032
v 0.019296 0.012462 -0.019296
v 0.020997 0.004269 -0.020997
v 0.020997 -0.004269 -0.020997
v 0.019296 -0.012462 -0.019296
v 0.016032 -0.019647 -0.016032
v 0.011469 -0.025239 -0.011469
v 0.008109 0.025239 -0.014046
v 0.011337 0.019647 -0.019635
v 0.013644 0.012462 -0.023634
v 0.014847 0.004269 -0.025716
v 0.014847 -0.004269 -0.025716
v 0.013644 -0.012462 -0.023634
v 0.011337 -0.019647 -0.019635
v 0.008109 -0.025239 -0.014046
v 0.004197 0.025239 -0.015666
v 0.005868 0.019647 -0.021900
v 0.007062 0.012462 -0.026358
v 0.007686 0.004269 -0.028683
v 0.007686 -0.004269 -0.028683
v 0.007062 -0.012462 -0.026358
v 0.005868 -0.019647 -0.021900
v 0.004197 -0.025239 -0.015666
v 0.000000 0.025239 -0.016218
v 0.000000 0.019647 -0.022671
v 0.000000 0.012462 -0.027288
v 0.000000 0.004269 -0.029694
v 0.000000 -0.004269 -0.029694
v 0.000000 -0.012462 -0.027288
v 0.000000 -0.019647 -0.022671
v 0.000000 -0.025239 -0.016218
v -0.004197 0.025239 -0.015666
v -0.005868 0.019647 -0.021900
v -0.007062 0.012462 -0.026358
v -0.007686 0.004269 -0.028683
v -0.007686 -0.004269 -0.028683
v -0.007062 -0.012462 -0.026358
v -0.005868 -0.019647 -0.021900
v -0.004197 -0.025239 -0.015666
v -0.008109 0.025239 -0.014046
v -0.011337 0.019647 -0.019635
v -0.013644 0.012462 -0.023634
v -0.014847 0.004269 -0.025716
v -0.014847 -0.004269 -0.025716
v -0.013644 -0.012462 -0.023634
v -0.011337 -0.019647 -0.019635
v -0.008109 -0.025239 -0.014046
v -0.011469 0.025239 -0.011469
v -0.016032 0.019647 -0.016032
v -0.019296 0.012462 -0.019296
v -0.020997 0.004269 -0.020997
v -0.020997 -0.004269 -0.020997
v -0.019296 -0.012462 -0.019296
v -0.016032 -0.019647 -0.016032
v -0.011469 -0.025239 -0.011469
v -0.014046 0.025239 -0.008109
v -0.019635 0.019647 -0.011337
v -0.023634 0.012462 -0.013644
v -0.025716 0.004269 -0.014847
v -0.025716 -0.004269 -0.014847
v -0.023634 -0.012462 -0.013644
v -0.019635 -0.019647 -0.011337
v -0.014046 -0.025239 -0.008109
v -0.015666 0.025239 -0.004197
v -0.021900 0.019647 -0.005868
v -0.026358 0.012462 -0.007062
v -0.028683 0.004269 -0.007686
v -0.028683 -0.004269 -0.007686
v -0.026358 -0.012462 -0.007062
v -0.021900 -0.019647 -0.005868
v -0.015666 -0.025239 -0.004197
vn -0.1423 0.9896 0.0187
vn -0.1326 0.9897 0.0548
vn -0.1138 0.9897 0.0874
vn -0.0874 0.9897 0.1138
vn -0.0548 0.9897 0.1326
vn -0.0187 0.9896 0.1423
vn 0.0187 0.9896 0.1423
vn 0.0548 0.9897 0.1326
vn 0.0874 0.9897 0.1138
vn 0.1138 0.9897 0.0874
vn 0.1326 0.9897 0.0548
vn 0.1423 0.9896 0.0187
vn 0.1423 0.9896 -0.0187
vn 0.1326 0.9897 -0.0548
vn 0.1138 0.9897 -0.0874
vn 0.0874 0.9897 -0.1138
vn 0.0548 0.9897 -0.1326
vn 0.0187 0.9896 -0.1423
vn -0.0187 0.9896 -0.1423
vn -0.0548 0.9897 -0.1326
vn -0.0874 0.9897 -0.1138
vn -0.1138 0.9897 -0.0874
vn -0.1326 0.9897 -0.0548
vn -0.1423 0.9896 -0.0187
vn -0.1423 -0.9896 0.0187
vn -0.1326 -0.9897 0.0548
vn -0.1138 -0.9897 0.0874
vn -0.0874 -0.9897 0.1138
vn -0.0548 -0.9897 0.1326
vn -0.0187 -0.9896 0.1423
vn 0.0187 -0.9896 0.1423
vn 0.0548 -0.9897 0.1326
vn 0.0874 -0.9897 0.1138
vn 0.1138 -0.9897 0.0874
vn 0.1326 -0.9897 0.0548
vn 0.1423 -0.9896 0.0187
vn 0.1423 -0.9896 -0.0187
vn 0.1326 -0.9897 -0.0548
vn 0.1138 -0.9897 -0.0874
vn 0.0874 -0.9897 -0.1138
vn 0.0548 -0.9897 -0.1326
vn 0.0187 -0.9896 -0.1423
vn -0.0187 -0.9896 -0.1423
vn -0.0548 -0.9897 -0.1326
vn -0.0874 -0.9897 -0.1138
vn -0.1138 -0.9897 -0.0874
vn -0.1326 -0.9897 -0.0548
vn -0.1423 -0.9896 -0.0187
vn -0.4150 0.9082 0.0546
vn -0.4147 0.9083 0.0545
vn -0.4150 0.9082 0.0547
vn -0.4151 0.9081 0.0546
vn -0.6524 0.7530 0.0858
vn -0.6525 0.7529 0.0857
vn -0.6525 0.7530 0.0858
vn -0.8359 0.5377 0.1103
vn -0.8362 0.5373 0.1101
vn -0.8362 0.5372 0.1100
vn -0.8360 0.5375 0.1102
vn -0.9520 0.2793 0.1253
vn -0.9519 0.2795 0.1252
vn -0.9519 0.2796 0.1253
vn -0.9519 0.2797 0.1254
vn -0.9915 -0.0000 0.1304
vn -0.9519 -0.2796 0.1253
vn -0.9519 -0.2795 0.1254
vn -0.9520 -0.2793 0.1255
vn -0.8362 -0.5372 0.1100
vn -0.8362 -0.5373 0.1099
vn -0.8361 -0.5375 0.1102
vn -0.8363 -0.5372 0.1101
vn -0.6525 -0.7530 0.0858
vn -0.6525 -0.7529 0.0858
vn -0.6524 -0.7530 0.0857
vn -0.4147 -0.9083 0.0546
vn -0.4152 -0.9081 0.0547
vn -0.3865 0.9083 0.1602
vn -0.3864 0.9083 0.1600
vn -0.3866 0.9082 0.1603
vn -0.3865 0.9083 0.1601
vn -0.6080 0.7530 0.2518
vn -0.7793 0.5372 0.3226
vn -0.7794 0.5372 0.3225
vn -0.7792 0.5373 0.3227
vn -0.8871 0.2795 0.3673
vn -0.8870 0.2797 0.3675
vn -0.8871 0.2795 0.3674
vn -0.8872 0.2794 0.3672
vn -0.9238 0.0000 0.3828
vn -0.8871 -0.2795 0.3674
vn -0.8871 -0.2797 0.3671
vn -0.8871 -0.2796 0.3673
vn -0.8871 -0.2794 0.3675
vn -0.7793 -0.5372 0.3226
vn -0.7793 -0.5372 0.3227
vn -0.7790 -0.5374 0.3229
vn -0.6080 -0.7530 0.2518
vn -0.3865 -0.9083 0.1600
vn -0.3865 -0.9084 0.1597
vn -0.3865 -0.9083 0.1598
vn -0.3317 0.9083 0.2547
vn -0.3318 0.9083 0.2549
vn -0.3319 0.9083 0.2546
vn -0.3319 0.9083 0.2547
vn -0.5221 0.7530 0.4005
vn -0.5220 0.7530 0.4006
vn -0.5221 0.7530 0.4006
vn -0.5222 0.7529 0.4005
vn -0.6690 0.5377 0.5131
vn -0.6691 0.5376 0.5131
vn -0.6691 0.5376 0.5132
vn -0.6691 0.5372 0.5135
vn -0.7617 0.2795 0.5846
vn -0.7618 0.2794 0.5845
vn -0.7617 0.2794 0.5845
vn -0.7934 0.0000 0.6088
vn -0.7617 -0.2795 0.5845
vn -0.7617 -0.2794 0.5846
vn -0.6691 -0.5376 0.5132
vn -0.6691 -0.5373 0.5135
vn -0.5221 -0.7530 0.4006
vn -0.5221 -0.7530 0.4005
vn -0.5221 -0.7529 0.4007
vn -0.3320 -0.9082 0.2549
vn -0.3317 -0.9083 0.2549
vn -0.3318 -0.9083 0.2548
vn -0.3319 -0.9082 0.2548
vn -0.2546 0.9083 0.3320
vn -0.2545 0.9083 0.3319
vn -0.2549 0.9082 0.3320
vn -0.2546 0.9083 0.3319
vn -0.4005 0.7530 0.5221
vn -0.4007 0.7529 0.5221
vn -0.4006 0.7530 0.5221
vn -0.5135 0.5373 0.6691
vn -0.5132 0.5376 0.6691
vn -0.5133 0.5375 0.6691
vn -0.5846 0.2794 0.7617
vn -0.5845 0.2795 0.7617
vn -0.6088 0.0000 0.7934
vn -0.5845 -0.2794 0.7617
vn -0.5846 -0.2795 0.7617
vn -0.5845 -0.2794 0.7618
vn -0.5135 -0.5373 0.6691
vn -0.5132 -0.5376 0.6690
vn -0.5135 -0.5372 0.6691
vn -0.5131 -0.5376 0.6691
vn -0.4006 -0.7530 0.5221
vn -0.4005 -0.7529 0.5222
vn -0.4005 -0.7530 0.5221
vn -0.4006 -0.7530 0.5220
vn -0.2546 -0.9083 0.3319
vn -0.2547 -0.9083 0.3319
vn -0.2546 -0.9083 0.3320
vn -0.2551 -0.9082 0.3318
vn -0.1598 0.9083 0.3865
vn -0.1600 0.9083 0.3865
vn -0.1603 0.9083 0.3865
vn -0.2518 0.7530 0.6080
vn -0.3226 0.5372 0.7793
vn -0.3225 0.5373 0.7793
vn -0.3227 0.5372 0.7793
vn -0.3673 0.2796 0.8871
vn -0.3675 0.2794 0.8871
vn -0.3674 0.2795 0.8871
vn -0.3828 0.0000 0.9238
vn -0.3674 -0.2795 0.8871
vn -0.3673 -0.2795 0.8871
vn -0.3674 -0.2794 0.8871
vn -0.3226 -0.5372 0.7793
vn -0.3227 -0.5373 0.7792
vn -0.3227 -0.5374 0.7792
vn -0.2518 -0.7530 0.6080
vn -0.1600 -0.9083 0.3865
vn -0.1598 -0.9083 0.3866
vn -0.1600 -0.9083 0.3864
vn -0.0546 0.9083 0.4147
vn -0.0545 0.9083 0.4147
vn -0.0858 0.7529 0.6525
vn -0.0857 0.7530 0.6524
vn -0.0858 0.7530 0.6525
vn -0.1100 0.5373 0.8362
vn -0.1101 0.5372 0.8363
vn -0.1100 0.5372 0.8362
vn -0.1099 0.5373 0.8362
vn -0.1253 0.2796 0.9519
vn -0.1252 0.2797 0.9519
vn -0.1254 0.2793 0.9520
vn -0.1254 0.2795 0.9519
vn -0.1304 0.0000 0.9915
vn -0.1253 -0.2796 0.9519
vn -0.1252 -0.2791 0.9521
vn -0.1253 -0.2792 0.9520
vn -0.1252 -0.2795 0.9519
vn -0.1100 -0.5372 0.8362
vn -0.1099 -0.5371 0.8363
vn -0.1101 -0.5373 0.8362
vn -0.0858 -0.7530 0.6525
vn -0.0858 -0.7530 0.6524
vn -0.0857 -0.7529 0.6525
vn -0.0546 -0.9083 0.4147
vn -0.0546 -0.9082 0.4150
vn -0.0545 -0.9083 0.4147
vn 0.0546 0.9083 0.4147
vn 0.0545 0.9083 0.4147
vn 0.0546 0.9082 0.4150
vn 0.0858 0.7530 0.6524
vn 0.0857 0.7529 0.6525
vn 0.0858 0.7530 0.6525
vn 0.1100 0.5372 0.8362
vn 0.1101 0.5373 0.8362
vn 0.1099 0.5371 0.8363
vn 0.1253 0.2792 0.9520
vn 0.1252 0.2795 0.9519
vn 0.1253 0.2796 0.9519
vn 0.1252 0.2791 0.9521
vn 0.1304 0.0000 0.9915
vn 0.1254 -0.2793 0.9520
vn 0.1254 -0.2795 0.9519
vn 0.1253 -0.2796 0.9519
vn 0.1252 -0.2797 0.9519
vn 0.1100 -0.5372 0.8362
vn 0.1099 -0.5373 0.8362
vn 0.1100 -0.5373 0.8362
vn 0.1101 -0.5372 0.8363
vn 0.0858 -0.7530 0.6525
vn 0.0858 -0.7529 0.6525
vn 0.0857 -0.7530 0.6524
vn 0.0546 -0.9083 0.4147
vn 0.0545 -0.9083 0.4147
vn 0.1603 0.9083 0.3865
vn 0.1600 0.9083 0.3864
vn 0.1600 0.9083 0.3865
vn 0.1598 0.9083 0.3866
vn 0.2518 0.7530 0.6080
vn 0.3226 0.5372 0.7793
vn 0.3225 0.5372 0.7794
vn 0.3227 0.5373 0.7792
vn 0.3673 0.2795 0.8871
vn 0.3675 0.2797 0.8870
vn 0.3674 0.2795 0.8871
vn 0.3672 0.2794 0.8872
vn 0.3828 0.0000 0.9238
vn 0.3674 -0.2795 0.8871
vn 0.3673 -0.2796 0.8871
vn 0.3226 -0.5372 0.7793
vn 0.3227 -0.5372 0.7793
vn 0.3225 -0.5373 0.7793
vn 0.2518 -0.7530 0.6080
vn 0.1600 -0.9083 0.3865
vn 0.1603 -0.9083 0.3865
vn 0.1598 -0.9083 0.3865
vn 0.2546 0.9082 0.3321
vn 0.2551 0.9082 0.3318
vn 0.2546 0.9083 0.3319
vn 0.2546 0.9083 0.3320
vn 0.4005 0.7530 0.5221
vn 0.4006 0.7530 0.5220
vn 0.4006 0.7530 0.5221
vn 0.4005 0.7529 0.5222
vn 0.5135 0.5372 0.6691
vn 0.5135 0.5373 0.6691
vn 0.5132 0.5376 0.6691
vn 0.5132 0.5376 0.6690
vn 0.5846 0.2795 0.7617
vn 0.5845 0.2794 0.7618
vn 0.5845 0.2794 0.7617
vn 0.6088 0.0000 0.7934
vn 0.5845 -0.2795 0.7617
vn 0.5846 -0.2794 0.7617
vn 0.5132 -0.5376 0.6691
vn 0.5135 -0.5373 0.6691
vn 0.4006 -0.7530 0.5221
vn 0.4005 -0.7530 0.5221
vn 0.4007 -0.7529 0.5221
vn 0.2546 -0.9083 0.3318
vn 0.2546 -0.9083 0.3319
vn 0.2548 -0.9083 0.3318
vn 0.2545 -0.9083 0.3319
vn 0.3318 0.9083 0.2548
vn 0.3319 0.9083 0.2545
vn 0.3318 0.9083 0.2546
vn 0.3317 0.9083 0.2549
vn 0.5221 0.7530 0.4005
vn 0.5221 0.7529 0.4007
vn 0.5221 0.7530 0.4006
vn 0.6691 0.5376 0.5132
vn 0.6691 0.5375 0.5133
vn 0.6691 0.5373 0.5135
vn 0.7617 0.2794 0.5846
vn 0.7617 0.2795 0.5845
vn 0.7934 0.0000 0.6088
vn 0.7617 -0.2794 0.5845
vn 0.7617 -0.2795 0.5846
vn 0.7618 -0.2794 0.5845
vn 0.6691 -0.5373 0.5135
vn 0.6691 -0.5372 0.5135
vn 0.6691 -0.5376 0.5131
vn 0.5221 -0.7530 0.4006
vn 0.5222 -0.7529 0.4005
vn 0.5221 -0.7530 0.4005
vn 0.5220 -0.7530 0.4006
vn 0.3319 -0.9083 0.2546
vn 0.3319 -0.9083 0.2547
vn 0.3317 -0.9083 0.2547
vn 0.3865 0.9083 0.1601
vn 0.3865 0.9083 0.1600
vn 0.3865 0.9083 0.1603
vn 0.6080 0.7530 0.2518
vn 0.7793 0.5372 0.3226
vn 0.7793 0.5373 0.3225
vn 0.7793 0.5372 0.3227
vn 0.8871 0.2796 0.3673
vn 0.8871 0.2794 0.3675
vn 0.8871 0.2795 0.3674
vn 0.8871 0.2793 0.3676
vn 0.9238 0.0000 0.3828
vn 0.8871 -0.2795 0.3674
vn 0.8872 -0.2794 0.3672
vn 0.8871 -0.2795 0.3673
vn 0.8870 -0.2797 0.3675
vn 0.7793 -0.5372 0.3226
vn 0.7792 -0.5373 0.3227
vn 0.7794 -0.5372 0.3225
vn 0.6080 -0.7530 0.2518
vn 0.3865 -0.9083 0.1600
vn 0.3865 -0.9083 0.1601
vn 0.3866 -0.9083 0.1598
vn 0.3864 -0.9083 0.1600
vn 0.4147 0.9083 0.0546
vn 0.4150 0.9082 0.0548
vn 0.6525 0.7529 0.0858
vn 0.6524 0.7530 0.0857
vn 0.6525 0.7530 0.0858
vn 0.8361 0.5375 0.1102
vn 0.8363 0.5372 0.1101
vn 0.8362 0.5372 0.1100
vn 0.8362 0.5373 0.1099
vn 0.9519 0.2796 0.1253
vn 0.9519 0.2797 0.1252
vn 0.9519 0.2795 0.1254
vn 0.9915 -0.0000 0.1304
vn 0.9519 -0.2796 0.1253
vn 0.9519 -0.2797 0.1254
vn 0.9519 -0.2795 0.1252
vn 0.8362 -0.5372 0.1100
vn 0.8360 -0.5375 0.1102
vn 0.8359 -0.5377 0.1103
vn 0.8362 -0.5373 0.1101
vn 0.6525 -0.7530 0.0858
vn 0.6524 -0.7530 0.0858
vn 0.6522 -0.7531 0.0864
vn 0.6525 -0.7529 0.0857
vn 0.4151 -0.9081 0.0547
vn 0.4151 -0.9081 0.0546
vn 0.4150 -0.9082 0.0546
vn 0.4147 -0.9083 0.0545
vn 0.4150 0.9082 -0.0546
vn 0.4147 0.9083 -0.0545
vn 0.4150 0.9082 -0.0547
vn 0.4151 0.9081 -0.0546
vn 0.6524 0.7530 -0.0858
vn 0.6525 0.7529 -0.0857
vn 0.6525 0.7530 -0.0858
vn 0.8359 0.5377 -0.1103
vn 0.8362 0.5373 -0.1101
vn 0.8362 0.5372 -0.1100
vn 0.8360 0.5375 -0.1102
vn 0.9520 0.2793 -0.1253
vn 0.9519 0.2795 -0.1252
vn 0.9519 0.2796 -0.1253
vn 0.9519 0.2797 -0.1254
vn 0.9915 0.0000 -0.1304
vn 0.9519 -0.2796 -0.1253
vn 0.9519 -0.2795 -0.1254
vn 0.9520 -0.2793 -0.1255
vn 0.8362 -0.5372 -0.1100
vn 0.8362 -0.5373 -0.1099
vn 0.8361 -0.5375 -0.1102
vn 0.8363 -0.5372 -0.1101
vn 0.6525 -0.7530 -0.0858
vn 0.6525 -0.7529 -0.0858
vn 0.6524 -0.7530 -0.0857
vn 0.4147 -0.9083 -0.0546
vn 0.4152 -0.9081 -0.0547
vn 0.3865 0.9083 -0.1602
vn 0.3864 0.9083 -0.1600
vn 0.3866 0.9082 -0.1603
vn 0.3865 0.9083 -0.1601
vn 0.6080 0.7530 -0.2518
vn 0.7793 0.5372 -0.3226
vn 0.7794 0.5372 -0.3225
vn 0.7792 0.5373 -0.3227
vn 0.8871 0.2795 -0.3673
vn 0.8870 0.2797 -0.3675
vn 0.8871 0.2795 -0.3674
vn 0.8872 0.2794 -0.3672
vn 0.9238 0.0000 -0.3828
vn 0.8871 -0.2795 -0.3674
vn 0.8871 -0.2797 -0.3671
vn 0.8871 -0.2796 -0.3673
vn 0.8871 -0.2794 -0.3675
vn 0.7793 -0.5372 -0.3226
vn 0.7793 -0.5372 -0.3227
vn 0.7790 -0.5374 -0.3229
vn 0.6080 -0.7530 -0.2518
vn 0.3865 -0.9083 -0.1600
vn 0.3865 -0.9084 -0.1597
vn 0.3865 -0.9083 -0.1598
vn 0.3317 0.9083 -0.2547
vn 0.3318 0.9083 -0.2549
vn 0.3319 0.9083 -0.2546
vn 0.3319 0.9083 -0.2547
vn 0.5221 0.7530 -0.4005
vn 0.5220 0.7530 -0.4006
vn 0.5221 0.7530 -0.4006
vn 0.5222 0.7529 -0.4005
vn 0.6690 0.5377 -0.5131
vn 0.6691 0.5376 -0.5131
vn 0.6691 0.5376 -0.5132
vn 0.6691 0.5372 -0.5135
vn 0.7617 0.2795 -0.5846
vn 0.7618 0.2794 -0.5845
vn 0.7617 0.2794 -0.5845
vn 0.7934 0.0000 -0.6088
vn 0.7617 -0.2795 -0.5845
vn 0.7617 -0.2794 -0.5846
vn 0.6691 -0.5376 -0.5132
vn 0.6691 -0.5373 -0.5135
vn 0.5221 -0.7530 -0.4006
vn 0.5221 -0.7530 -0.4005
vn 0.5221 -0.7529 -0.4007
vn 0.3320 -0.9082 -0.2549
vn 0.3317 -0.9083 -0.2549
vn 0.3318 -0.9083 -0.2548
vn 0.3319 -0.9082 -0.2548
vn 0.2546 0.9083 -0.3320
vn 0.2545 0.9083 -0.3319
vn 0.2549 0.9082 -0.3320
vn 0.2546 0.9083 -0.3319
vn 0.4005 0.7530 -0.5221
vn 0.4007 0.7529 -0.5221
vn 0.4006 0.7530 -0.5221
vn 0.5135 0.5373 -0.6691
vn 0.5132 0.5376 -0.6691
vn 0.5133 0.5375 -0.6691
vn 0.5846 0.2794 -0.7617
vn 0.5845 0.2795 -0.7617
vn 0.6088 0.0000 -0.7934
vn 0.5845 -0.2794 -0.7617
vn 0.5846 -0.2795 -0.7617
vn 0.5845 -0.2794 -0.7618
vn 0.5135 -0.5373 -0.6691
vn 0.5132 -0.5376 -0.6690
vn 0.5135 -0.5372 -0.6691
vn 0.5131 -0.5376 -0.6691
vn 0.4006 -0.7530 -0.5221
vn 0.4005 -0.7529 -0.5222
vn 0.4005 -0.7530 -0.5221
vn 0.4006 -0.7530 -0.5220
vn 0.2546 -0.9083 -0.3319
vn 0.2547 -0.9083 -0.3319
vn 0.2546 -0.9083 -0.3320
vn 0.2551 -0.9082 -0.3318
vn 0.1598 0.9083 -0.3865
vn 0.1600 0.9083 -0.3865
vn 0.1603 0.9083 -0.3865
vn 0.2518 0.7530 -0.6080
vn 0.3226 0.5372 -0.7793
vn 0.3225 0.5373 -0.7793
vn 0.3227 0.5372 -0.7793
vn 0.3673 0.2796 -0.8871
vn 0.3675 0.2794 -0.8871
vn 0.3674 0.2795 -0.8871
vn 0.3828 0.0000 -0.9238
vn 0.3674 -0.2795 -0.8871
vn 0.3673 -0.2795 -0.8871
vn 0.3674 -0.2794 -0.8871
vn 0.3226 -0.5372 -0.7793
vn 0.3227 -0.5373 -0.7792
vn 0.3227 -0.5374 -0.7792
vn 0.2518 -0.7530 -0.6080
vn 0.1600 -0.9083 -0.3865
vn 0.1598 -0.9083 -0.3866
vn 0.1600 -0.9083 -0.3864
vn 0.0546 0.9083 -0.4147
vn 0.0545 0.9083 -0.4147
vn 0.0858 0.7529 -0.6525
vn 0.0857 0.7530 -0.6524
vn 0.0858 0.7530 -0.6525
vn 0.1100 0.5373 -0.8362
vn 0.1101 0.5372 -0.8363
vn 0.1100 0.5372 -0.8362
vn 0.1099 0.5373 -0.8362
vn 0.1253 0.2796 -0.9519
vn 0.1252 0.2797 -0.9519
vn 0.1254 0.2793 -0.9520
vn 0.1254 0.2795 -0.9519
vn 0.1304 0.0000 -0.9915
vn 0.1253 -0.2796 -0.9519
vn 0.1252 -0.2791 -0.9521
vn 0.1253 -0.2792 -0.9520
vn 0.1252 -0.2795 -0.9519
vn 0.1100 -0.5372 -0.8362
vn 0.1099 -0.5371 -0.8363
vn 0.1101 -0.5373 -0.8362
vn 0.0858 -0.7530 -0.6525
vn 0.0858 -0.7530 -0.6524
vn 0.0857 -0.7529 -0.6525
vn 0.0546 -0.9083 -0.4147
vn 0.0546 -0.9082 -0.4150
vn 0.0545 -0.9083 -0.4147
vn -0.0546 0.9083 -0.4147
vn -0.0545 0.9083 -0.4147
vn -0.0546 0.9082 -0.4150
vn -0.0858 0.7530 -0.6524
vn -0.0857 0.7529 -0.6525
vn -0.0858 0.7530 -0.6525
vn -0.1100 0.5372 -0.8362
vn -0.1101 0.5373 -0.8362
vn -0.1099 0.5371 -0.8363
vn -0.1253 0.2792 -0.9520
vn -0.1252 0.2795 -0.9519
vn -0.1253 0.2796 -0.9519
vn -0.1252 0.2791 -0.9521
vn -0.1304 0.0000 -0.9915
vn -0.1254 -0.2793 -0.9520
vn -0.1254 -0.2795 -0.9519
vn -0.1253 -0.2796 -0.9519
vn -0.1252 -0.2797 -0.9519
vn -0.1100 -0.5372 -0.8362
vn -0.1099 -0.5373 -0.8362
vn -0.1100 -0.5373 -0.8362
vn -0.1101 -0.5372 -0.8363
vn -0.0858 -0.7530 -0.6525
vn -0.0858 -0.7529 -0.6525
vn -0.0857 -0.7530 -0.6524
vn -0.0546 -0.9083 -0.4147
vn -0.0545 -0.9083 -0.4147
vn -0.1603 0.9083 -0.3865
vn -0.1600 0.9083 -0.3864
vn -0.1600 0.9083 -0.3865
vn -0.1598 0.9083 -0.3866
vn -0.2518 0.7530 -0.6080
vn -0.3226 0.5372 -0.7793
vn -0.3225 0.5372 -0.7794
vn -0.3227 0.5373 -0.7792
vn -0.3673 0.2795 -0.8871
vn -0.3675 0.2797 -0.8870
vn -0.3674 0.2795 -0.8871
vn -0.3672 0.2794 -0.8872
vn -0.3828 0.0000 -0.9238
vn -0.3674 -0.2795 -0.8871
vn -0.3673 -0.2796 -0.8871
vn -0.3226 -0.5372 -0.7793
vn -0.3227 -0.5372 -0.7793
vn -0.3225 -0.5373 -0.7793
vn -0.2518 -0.7530 -0.6080
vn -0.1600 -0.9083 -0.3865
vn -0.1603 -0.9083 -0.3865
vn -0.1598 -0.9083 -0.3865
vn -0.2546 0.9082 -0.3321
vn -0.2551 0.9082 -0.3318
vn -0.2546 0.9083 -0.3319
vn -0.2546 0.9083 -0.3320
vn -0.4005 0.7530 -0.5221
vn -0.4006 0.7530 -0.5220
vn -0.4006 0.7530 -0.5221
vn -0.4005 0.7529 -0.5222
vn -0.5135 0.5372 -0.6691
vn -0.5135 0.5373 -0.6691
vn -0.5132 0.5376 -0.6691
vn -0.5132 0.5376 -0.6690
vn -0.5846 0.2795 -0.7617
vn -0.5845 0.2794 -0.7618
vn -0.5845 0.2794 -0.7617
vn -0.6088 0.0000 -0.7934
vn -0.5845 -0.2795 -0.7617
vn -0.5846 -0.2794 -0.7617
vn -0.5132 -0.5376 -0.6691
vn -0.5135 -0.5373 -0.6691
vn -0.4006 -0.7530 -0.5221
vn -0.4005 -0.7530 -0.5221
vn -0.4007 -0.7529 -0.5221
vn -0.2546 -0.9083 -0.3318
vn -0.2546 -0.9083 -0.3319
vn -0.2548 -0.9083 -0.3318
vn -0.2545 -0.9083 -0.3319
vn -0.3318 0.9083 -0.2548
vn -0.3319 0.9083 -0.2545
vn -0.3318 0.9083 -0.2546
vn -0.3317 0.9083 -0.2549
vn -0.5221 0.7530 -0.4005
vn -0.5221 0.7529 -0.4007
vn -0.5221 0.7530 -0.4006
vn -0.6691 0.5376 -0.5132
vn -0.6691 0.5375 -0.5133
vn -0.6691 0.5373 -0.5135
vn -0.7617 0.2794 -0.5846
vn -0.7617 0.2795 -0.5845
vn -0.7934 0.0000 -0.6088
vn -0.7617 -0.2794 -0.5845
vn -0.7617 -0.2795 -0.5846
vn -0.7618 -0.2794 -0.5845
vn -0.6691 -0.5373 -0.5135
vn -0.6691 -0.5372 -0.5135
vn -0.6691 -0.5376 -0.5131
vn -0.5221 -0.7530 -0.4006
vn -0.5222 -0.7529 -0.4005
vn -0.5221 -0.7530 -0.4005
vn -0.5220 -0.7530 -0.4006
vn -0.3319 -0.9083 -0.2546
vn -0.3319 -0.9083 -0.2547
vn -0.3317 -0.9083 -0.2547
vn -0.3865 0.9083 -0.1601
vn -0.3865 0.9083 -0.1600
vn -0.3865 0.9083 -0.1603
vn -0.6080 0.7530 -0.2518
vn -0.7793 0.5372 -0.3226
vn -0.7793 0.5373 -0.3225
vn -0.7793 0.5372 -0.3227
vn -0.8871 0.2796 -0.3673
vn -0.8871 0.2794 -0.3675
vn -0.8871 0.2795 -0.3674
vn -0.8871 0.2793 -0.3676
vn -0.9238 0.0000 -0.3828
vn -0.8871 -0.2795 -0.3674
vn -0.8872 -0.2794 -0.3672
vn -0.8871 -0.2795 -0.3673
vn -0.8870 -0.2797 -0.3675
vn -0.7793 -0.5372 -0.3226
vn -0.7792 -0.5373 -0.3227
vn -0.7794 -0.5372 -0.3225
vn -0.6080 -0.7530 -0.2518
vn -0.3865 -0.9083 -0.1600
vn -0.3865 -0.9083 -0.1601
vn -0.3866 -0.9083 -0.1598
vn -0.3864 -0.9083 -0.1600
vn -0.4147 0.9083 -0.0546
vn -0.4150 0.9082 -0.0548
vn -0.6525 0.7529 -0.0858
vn -0.6524 0.7530 -0.0857
vn -0.6525 0.7530 -0.0858
vn -0.8361 0.5375 -0.1102
vn -0.8363 0.5372 -0.1101
vn -0.8362 0.5372 -0.1100
vn -0.8362 0.5373 -0.1099
vn -0.9519 0.2796 -0.1253
vn -0.9519 0.2797 -0.1252
vn -0.9519 0.2795 -0.1254
vn -0.9915 0.0000 -0.1304
vn -0.9519 -0.2796 -0.1253
vn -0.9519 -0.2797 -0.1254
vn -0.9519 -0.2795 -0.1252
vn -0.8362 -0.5372 -0.1100
vn -0.8360 -0.5375 -0.1102
vn -0.8359 -0.5377 -0.1103
vn -0.8362 -0.5373 -0.1101
vn -0.6525 -0.7530 -0.0858
vn -0.6524 -0.7530 -0.0858
vn -0.6522 -0.7531 -0.0864
vn -0.6525 -0.7529 -0.0857
vn -0.4151 -0.9081 -0.0547
vn -0.4151 -0.9081 -0.0546
vn -0.4150 -0.9082 -0.0546
vn -0.4147 -0.9083 -0.0545
usemtl None.006
s 1
f 1//1 2//1 3//1
f 2//2 4//2 3//2
f 4//3 5//3 3//3
f 5//4 6//4 3//4
f 6//5 7//5 3//5
f 7//6 8//6 3//6
f 8//7 9//7 3//7
f 9//8 10//8 3//8
f 10//9 11//9 3//9
f 11//10 12//10 3//10
f 12//11 13//11 3//11
f 13//12 14//12 3//12
f 14//13 15//13 3//13
f 15//14 16//14 3//14
f 16//15 17//15 3//15
f 17//16 18//16 3//16
f 18//17 19//17 3//17
f 19//18 20//18 3//18
f 20//19 21//19 3//19
f 21//20 22//20 3//20
f 22//21 23//21 3//21
f 23//22 24//22 3//22
f 24//23 25//23 3//23
f 25//24 1//24 3//24
f 26//25 27//25 28//25
f 28//26 27//26 29//26
f 29//27 27//27 30//27
f 30//28 27//28 31//28
f 31//29 27//29 32//29
f 32//30 27//30 33//30
f 33//31 27//31 34//31
f 34//32 27//32 35//32
f 35//33 27//33 36//33
f 36//34 27//34 37//34
f 37//35 27//35 38//35
f 38//36 27//36 39//36
f 39//37 27//37 40//37
f 40//38 27//38 41//38
f 41//39 27//39 42//39
f 42//40 27//40 43//40
f 43//41 27//41 44//41
f 44//42 27//42 45//42
f 45//43 27//43 46//43
f 46//44 27//44 47//44
f 47//45 27//45 48//45
f 48//46 27//46 49//46
f 49//47 27//47 50//47
f 50//48 27//48 26//48
f 1//49 51//50 52//51
f 1//49 52//51 2//52
f 51//53 53//54 54//55
f 51//53 54//55 52//53
f 53//56 55//57 56//58
f 53//56 56//58 54//59
f 55//60 57//61 58//62
f 55//60 58//62 56//63
f 57//64 59//64 60//64
f 57//64 60//64 58//64
f 59//65 61//66 62//65
f 59//65 62//65 60//67
f 61//68 63//69 64//70
f 61//68 64//70 62//71
f 63//72 65//73 66//73
f 63//72 66//73 64//74
f 65//75 26//75 28//75
f 65//75 28//75 66//76
f 2//77 52//78 67//79
f 2//77 67//79 4//80
f 52//81 54//81 68//81
f 52//81 68//81 67//81
f 54//82 56//83 69//82
f 54//82 69//82 68//84
f 56//85 58//86 70//87
f 56//85 70//87 69//88
f 58//89 60//89 71//89
f 58//89 71//89 70//89
f 60//90 62//91 72//92
f 60//90 72//92 71//93
f 62//94 64//95 73//94
f 62//94 73//94 72//96
f 64//97 66//97 74//97
f 64//97 74//97 73//97
f 66//98 28//99 29//100
f 66//98 29//100 74//98
f 4//101 67//102 75//103
f 4//101 75//103 5//104
f 67//105 68//106 76//107
f 67//105 76//107 75//108
f 68//109 69//110 77//111
f 68//109 77//111 76//112
f 69//113 70//114 78//115
f 69//113 78//115 77//113
f 70//116 71//116 79//116
f 70//116 79//116 78//116
f 71//117 72//118 80//118
f 71//117 80//118 79//117
f 72//119 73//120 81//120
f 72//119 81//120 80//119
f 73//121 74//122 82//122
f 73//121 82//122 81//123
f 74//124 29//125 30//126
f 74//124 30//126 82//127
f 5//128 75//129 83//130
f 5//128 83//130 6//131
f 75//132 76//133 84//134
f 75//132 84//134 83//132
f 76//135 77//136 85//137
f 76//135 85//137 84//135
f 77//138 78//139 86//139
f 77//138 86//139 85//138
f 78//140 79//140 87//140
f 78//140 87//140 86//140
f 79//141 80//142 88//142
f 79//141 88//142 87//143
f 80//144 81//145 89//146
f 80//144 89//146 88//147
f 81//148 82//149 90//150
f 81//148 90//150 89//151
f 82//152 30//153 31//154
f 82//152 31//154 90//155
f 6//156 83//157 91//157
f 6//156 91//157 7//158
f 83//159 84//159 92//159
f 83//159 92//159 91//159
f 84//160 85//161 93//160
f 84//160 93//160 92//162
f 85//163 86//164 94//165
f 85//163 94//165 93//165
f 86//166 87//166 95//166
f 86//166 95//166 94//166
f 87//167 88//167 96//168
f 87//167 96//168 95//169
f 88//170 89//171 97//170
f 88//170 97//170 96//172
f 89//173 90//173 98//173
f 89//173 98//173 97//173
f 90//174 31//175 32//175
f 90//174 32//175 98//176
f 7//177 91//178 99//177
f 7//177 99//177 8//177
f 91//179 92//180 100//181
f 91//179 100//181 99//179
f 92//182 93//183 101//184
f 92//182 101//184 100//185
f 93//186 94//187 102//188
f 93//186 102//188 101//189
f 94//190 95//190 103//190
f 94//190 103//190 102//190
f 95//191 96//192 104//193
f 95//191 104//193 103//194
f 96//195 97//196 105//195
f 96//195 105//195 104//197
f 97//198 98//199 106//199
f 97//198 106//199 105//200
f 98//201 32//202 33//201
f 98//201 33//201 106//203
f 8//204 99//205 107//204
f 8//204 107//204 9//206
f 99//207 100//208 108//209
f 99//207 108//209 107//207
f 100//210 101//211 109//210
f 100//210 109//210 108//212
f 101//213 102//214 110//215
f 101//213 110//215 109//216
f 102//217 103//217 111//217
f 102//217 111//217 110//217
f 103//218 104//219 112//220
f 103//218 112//220 111//221
f 104//222 105//223 113//224
f 104//222 113//224 112//225
f 105//226 106//227 114//227
f 105//226 114//227 113//228
f 106//229 33//229 34//229
f 106//229 34//229 114//230
f 9//231 107//232 115//233
f 9//231 115//233 10//234
f 107//235 108//235 116//235
f 107//235 116//235 115//235
f 108//236 109//237 117//236
f 108//236 117//236 116//238
f 109//239 110//240 118//241
f 109//239 118//241 117//242
f 110//243 111//243 119//243
f 110//243 119//243 118//243
f 111//244 112//244 120//245
f 111//244 120//245 119//245
f 112//246 113//247 121//246
f 112//246 121//246 120//248
f 113//249 114//249 122//249
f 113//249 122//249 121//249
f 114//250 34//251 35//252
f 114//250 35//252 122//250
f 10//253 115//254 123//255
f 10//253 123//255 11//256
f 115//257 116//258 124//259
f 115//257 124//259 123//260
f 116//261 117//262 125//263
f 116//261 125//263 124//264
f 117//265 118//266 126//267
f 117//265 126//267 125//265
f 118//268 119//268 127//268
f 118//268 127//268 126//268
f 119//269 120//270 128//270
f 119//269 128//270 127//269
f 120//271 121//272 129//272
f 120//271 129//272 128//271
f 121//273 122//274 130//274
f 121//273 130//274 129//275
f 122//276 35//277 36//278
f 122//276 36//278 130//279
f 11//280 123//281 131//282
f 11//280 131//282 12//283
f 123//284 124//285 132//286
f 123//284 132//286 131//284
f 124//287 125//287 133//288
f 124//287 133//288 132//289
f 125//290 126//291 134//291
f 125//290 134//291 133//290
f 126//292 127//292 135//292
f 126//292 135//292 134//292
f 127//293 128//294 136//294
f 127//293 136//294 135//295
f 128//296 129//297 137//297
f 128//296 137//297 136//298
f 129//299 130//300 138//301
f 129//299 138//301 137//302
f 130//303 36//304 37//305
f 130//303 37//305 138//303
f 12//306 131//307 139//307
f 12//306 139//307 13//308
f 131//309 132//309 140//309
f 131//309 140//309 139//309
f 132//310 133//311 141//310
f 132//310 141//310 140//312
f 133//313 134//314 142//315
f 133//313 142//315 141//316
f 134//317 135//317 143//317
f 134//317 143//317 142//317
f 135//318 136//319 144//320
f 135//318 144//320 143//321
f 136//322 137//323 145//322
f 136//322 145//322 144//324
f 137//325 138//325 146//325
f 137//325 146//325 145//325
f 138//326 37//327 38//328
f 138//326 38//328 146//329
f 13//330 139//331 147//330
f 13//330 147//330 14//330
f 139//332 140//333 148//334
f 139//332 148//334 147//332
f 140//335 141//336 149//337
f 140//335 149//337 148//338
f 141//339 142//340 150//339
f 141//339 150//339 149//341
f 142//342 143//342 151//342
f 142//342 151//342 150//342
f 143//343 144//344 152//343
f 143//343 152//343 151//345
f 144//346 145//347 153//348
f 144//346 153//348 152//349
f 145//350 146//351 154//352
f 145//350 154//352 153//353
f 146//354 38//355 39//356
f 146//354 39//356 154//357
f 14//358 147//359 155//360
f 14//358 155//360 15//361
f 147//362 148//363 156//364
f 147//362 156//364 155//362
f 148//365 149//366 157//367
f 148//365 157//367 156//368
f 149//369 150//370 158//371
f 149//369 158//371 157//372
f 150//373 151//373 159//373
f 150//373 159//373 158//373
f 151//374 152//375 160//374
f 151//374 160//374 159//376
f 152//377 153//378 161//379
f 152//377 161//379 160//380
f 153//381 154//382 162//382
f 153//381 162//382 161//383
f 154//384 39//384 40//384
f 154//384 40//384 162//385
f 15//386 155//387 163//388
f 15//386 163//388 16//389
f 155//390 156//390 164//390
f 155//390 164//390 163//390
f 156//391 157//392 165//391
f 156//391 165//391 164//393
f 157//394 158//395 166//396
f 157//394 166//396 165//397
f 158//398 159//398 167//398
f 158//398 167//398 166//398
f 159//399 160//400 168//401
f 159//399 168//401 167//402
f 160//403 161//404 169//403
f 160//403 169//403 168//405
f 161//406 162//406 170//406
f 161//406 170//406 169//406
f 162//407 40//408 41//409
f 162//407 41//409 170//407
f 16//410 163//411 171//412
f 16//410 171//412 17//413
f 163//414 164//415 172//416
f 163//414 172//416 171//417
f 164//418 165//419 173//420
f 164//418 173//420 172//421
f 165//422 166//423 174//424
f 165//422 174//424 173//422
f 166//425 167//425 175//425
f 166//425 175//425 174//425
f 167//426 168//427 176//427
f 167//426 176//427 175//426
f 168//428 169//429 177//429
f 168//428 177//429 176//428
f 169//430 170//431 178//431
f 169//430 178//431 177//432
f 170//433 41//434 42//435
f 170//433 42//435 178//436
f 17//437 171//438 179//439
f 17//437 179//439 18//440
f 171//441 172//442 180//443
f 171//441 180//443 179//441
f 172//444 173//445 181//446
f 172//444 181//446 180//444
f 173//447 174//448 182//448
f 173//447 182//448 181//447
f 174//449 175//449 183//449
f 174//449 183//449 182//449
f 175//450 176//451 184//451
f 175//450 184//451 183//452
f 176//453 177//454 185//455
f 176//453 185//455 184//456
f 177//457 178//458 186//459
f 177//457 186//459 185//460
f 178//461 42//462 43//463
f 178//461 43//463 186//464
f 18//465 179//466 187//466
f 18//465 187//466 19//467
f 179//468 180//468 188//468
f 179//468 188//468 187//468
f 180//469 181//470 189//469
f 180//469 189//469 188//471
f 181//472 182//473 190//474
f 181//472 190//474 189//474
f 182//475 183//475 191//475
f 182//475 191//475 190//475
f 183//476 184//476 192//477
f 183//476 192//477 191//478
f 184//479 185//480 193//479
f 184//479 193//479 192//481
f 185//482 186//482 194//482
f 185//482 194//482 193//482
f 186//483 43//484 44//484
f 186//483 44//484 194//485
f 19//486 187//487 195//486
f 19//486 195//486 20//486
f 187//488 188//489 196//490
f 187//488 196//490 195//488
f 188//491 189//492 197//493
f 188//491 197//493 196//494
f 189//495 190//496 198//497
f 189//495 198//497 197//498
f 190//499 191//499 199//499
f 190//499 199//499 198//499
f 191//500 192//501 200//502
f 191//500 200//502 199//503
f 192//504 193//505 201//504
f 192//504 201//504 200//506
f 193//507 194//508 202//508
f 193//507 202//508 201//509
f 194//510 44//511 45//510
f 194//510 45//510 202//512
f 20//513 195//514 203//513
f 20//513 203//513 21//515
f 195//516 196//517 204//518
f 195//516 204//518 203//516
f 196//519 197//520 205//519
f 196//519 205//519 204//521
f 197//522 198//523 206//524
f 197//522 206//524 205//525
f 198//526 199//526 207//526
f 198//526 207//526 206//526
f 199//527 200//528 208//529
f 199//527 208//529 207//530
f 200//531 201//532 209//533
f 200//531 209//533 208//534
f 201//535 202//536 210//536
f 201//535 210//536 209//537
f 202//538 45//538 46//538
f 202//538 46//538 210//539
f 21//540 203//541 211//542
f 21//540 211//542 22//543
f 203//544 204//544 212//544
f 203//544 212//544 211//544
f 204//545 205//546 213//545
f 204//545 213//545 212//547
f 205//548 206//549 214//550
f 205//548 214//550 213//551
f 206//552 207//552 215//552
f 206//552 215//552 214//552
f 207//553 208//553 216//554
f 207//553 216//554 215//554
f 208//555 209//556 217//555
f 208//555 217//555 216//557
f 209//558 210//558 218//558
f 209//558 218//558 217//558
f 210//559 46//560 47//561
f 210//559 47//561 218//559
f 22//562 211//563 219//564
f 22//562 219//564 23//565
f 211//566 212//567 220//568
f 211//566 220//568 219//569
f 212//570 213//571 221//572
f 212//570 221//572 220//573
f 213//574 214//575 222//576
f 213//574 222//576 221//574
f 214//577 215//577 223//577
f 214//577 223//577 222//577
f 215//578 216//579 224//579
f 215//578 224//579 223//578
f 216//580 217//581 225//581
f 216//580 225//581 224//580
f 217//582 218//583 226//583
f 217//582 226//583 225//584
f 218//585 47//586 48//587
f 218//585 48//587 226//588
f 23//589 219//590 227//591
f 23//589 227//591 24//592
f 219//593 220//594 228//595
f 219//593 228//595 227//593
f 220//596 221//596 229//597
f 220//596 229//597 228//598
f 221//599 222//600 230//600
f 221//599 230//600 229//599
f 222//601 223//601 231//601
f 222//601 231//601 230//601
f 223//602 224//603 232//603
f 223//602 232//603 231//604
f 224//605 225//606 233//606
f 224//605 233//606 232//607
f 225//608 226//609 234//610
f 225//608 234//610 233//611
f 226//612 48//613 49//614
f 226//612 49//614 234//612
f 24//615 227//616 235//616
f 24//615 235//616 25//617
f 227//618 228//618 236//618
f 227//618 236//618 235//618
f 228//619 229//620 237//619
f 228//619 237//619 236//621
f 229//622 230//623 238//624
f 229//622 238//624 237//625
f 230//626 231//626 239//626
f 230//626 239//626 238//626
f 231//627 232//628 240//629
f 231//627 240//629 239//630
f 232//631 233//632 241//631
f 232//631 241//631 240//633
f 233//634 234//634 242//634
f 233//634 242//634 241//634
f 234//635 49//636 50//637
f 234//635 50//637 242//638
f 25//639 235//640 51//639
f 25//639 51//639 1//639
f 235//641 236//642 53//643
f 235//641 53//643 51//641
f 236//644 237//645 55//646
f 236//644 55//646 53//647
f 237//648 238//649 57//648
f 237//648 57//648 55//650
f 238//651 239//651 59//651
f 238//651 59//651 57//651
f 239//652 240//653 61//652
f 239//652 61//652 59//654
f 240//655 241//656 63//657
f 240//655 63//657 61//658
f 241//659 242//660 65//661
f 241//659 65//661 63//662
f 242//663 50//664 26//665
f 242//663 26//665 65//666
